<?xml version="1.0" encoding="UTF-8"?>
<svg xmlns="http://www.w3.org/2000/svg" xmlns:xlink="http://www.w3.org/1999/xlink" width="100px" height="100px" viewBox="0 0 100 100" version="1.1">
<g id="surface1">
<path style=" stroke:none;fill-rule:nonzero;fill:rgb(0%,0%,0%);fill-opacity:1;" d="M 52.101562 7.921875 C 48.984375 8.078125 45.683594 8.566406 41.992188 9.417969 C 40.558594 9.746094 39.828125 9.96875 37.914062 10.648438 C 35.167969 11.621094 33.875 12.160156 31.847656 13.171875 C 20.324219 18.90625 13.054688 28.867188 11.640625 40.84375 C 11.445312 42.519531 11.386719 43.777344 11.421875 45.859375 C 11.453125 47.773438 11.484375 48.25 11.671875 49.765625 C 11.96875 52.21875 12.558594 54.980469 13.335938 57.515625 C 15.300781 63.984375 18.578125 69.648438 22.898438 74.054688 C 28.242188 79.503906 34.894531 82.675781 42.683594 83.496094 C 48.117188 84.0625 54.453125 83.304688 61.804688 81.195312 C 62.925781 80.875 65.765625 79.957031 66.601562 79.640625 C 66.75 79.582031 66.882812 79.554688 66.894531 79.566406 C 66.90625 79.582031 67.351562 81.105469 67.886719 82.949219 C 68.414062 84.796875 68.898438 86.398438 68.957031 86.507812 C 69.136719 86.867188 69.546875 87.136719 69.914062 87.136719 C 70.109375 87.136719 81.300781 83.921875 81.550781 83.792969 C 81.929688 83.597656 82.195312 83.089844 82.121094 82.699219 C 82.097656 82.601562 79.742188 74.453125 76.878906 64.59375 C 74.007812 54.734375 71.675781 46.65625 71.695312 46.644531 C 71.703125 46.632812 74.699219 45.761719 78.351562 44.710938 C 86.429688 42.382812 85.726562 42.59375 85.945312 42.417969 C 86.179688 42.214844 86.347656 41.878906 86.347656 41.597656 C 86.347656 41.292969 83.09375 30.082031 82.9375 29.851562 C 82.746094 29.578125 82.460938 29.410156 82.125 29.386719 C 81.867188 29.367188 79.246094 30.105469 61.421875 35.246094 C 50.207031 38.476562 40.949219 41.160156 40.851562 41.210938 C 40.484375 41.402344 40.226562 41.878906 40.28125 42.273438 C 40.316406 42.554688 43.535156 53.621094 43.636719 53.804688 C 43.800781 54.125 44.226562 54.382812 44.585938 54.382812 C 44.6875 54.382812 47.8125 53.503906 51.539062 52.433594 C 55.265625 51.359375 58.339844 50.480469 58.382812 50.480469 C 58.421875 50.480469 58.46875 50.527344 58.484375 50.578125 C 58.496094 50.636719 59.226562 53.15625 60.109375 56.183594 C 61.394531 60.601562 61.695312 61.691406 61.628906 61.730469 C 61.363281 61.890625 55.804688 63.769531 54.664062 64.082031 C 48.875 65.660156 43.964844 65.140625 40.003906 62.511719 C 37.316406 60.734375 34.894531 57.625 33.53125 54.199219 C 32.800781 52.363281 31.925781 49.207031 31.542969 47.0625 C 31.15625 44.855469 31.199219 42.652344 31.683594 40.332031 C 32.285156 37.429688 33.554688 35.066406 35.65625 32.90625 C 37.769531 30.738281 40.28125 29.257812 43.894531 28.050781 C 48.394531 26.550781 52.222656 26.027344 55.761719 26.421875 C 57.050781 26.566406 58.058594 26.503906 59.101562 26.214844 C 59.71875 26.042969 60.628906 25.585938 61.046875 25.230469 C 62.003906 24.433594 62.984375 22.792969 63.128906 21.765625 C 63.300781 20.542969 63.347656 14.554688 63.195312 13.566406 C 63.035156 12.5625 62.59375 11.167969 62.257812 10.660156 C 61.78125 9.917969 60.695312 9.050781 59.769531 8.667969 C 58.183594 8.015625 55.488281 7.75 52.101562 7.921875 Z M 52.101562 7.921875 "/>
</g>
</svg>
