<?xml version="1.0" standalone="no"?>
<!DOCTYPE svg PUBLIC "-//W3C//DTD SVG 20010904//EN"
 "http://www.w3.org/TR/2001/REC-SVG-20010904/DTD/svg10.dtd">
<svg version="1.0" xmlns="http://www.w3.org/2000/svg"
 width="100.000000pt" height="101.000000pt" viewBox="0 0 100.000000 101.000000"
 preserveAspectRatio="xMidYMid meet">

<g transform="translate(0.000000,101.000000) scale(0.100000,-0.100000)"
fill="#000000" stroke="none">
<path d="M463 920 c-164 -30 -283 -124 -329 -263 -38 -115 3 -280 96 -381 93
-101 240 -127 401 -72 39 14 41 13 49 -9 21 -55 103 -52 117 3 5 20 -56 265
-83 337 -2 5 25 19 62 29 36 10 68 25 71 32 8 22 -11 86 -29 97 -21 14 -363
-79 -389 -105 -15 -14 -16 -23 -7 -58 6 -23 17 -44 25 -47 14 -6 87 8 124 22
13 5 20 -7 33 -55 10 -34 16 -63 14 -65 -14 -14 -129 -35 -162 -29 -141 23
-198 260 -83 344 38 28 111 49 169 50 68 0 88 20 88 86 0 79 -50 104 -167 84z"/>
</g>
</svg>
